<svg width="21" height="20" viewBox="0 0 21 20" fill="none" xmlns="http://www.w3.org/2000/svg">
<path d="M8.37777 0.833374V2.50004H13.3778V0.833374H15.0444V2.50004H18.3778C18.5988 2.50004 18.8107 2.58784 18.967 2.74412C19.1233 2.9004 19.2111 3.11236 19.2111 3.33337V16.6667C19.2111 16.8877 19.1233 17.0997 18.967 17.256C18.8107 17.4122 18.5988 17.5 18.3778 17.5H3.37777C3.15675 17.5 2.94479 17.4122 2.78851 17.256C2.63223 17.0997 2.54443 16.8877 2.54443 16.6667V3.33337C2.54443 3.11236 2.63223 2.9004 2.78851 2.74412C2.94479 2.58784 3.15675 2.50004 3.37777 2.50004H6.7111V0.833374H8.37777ZM17.5444 6.66671H4.2111V15.8334H17.5444V6.66671ZM13.4078 8.44671L14.5861 9.62504L10.4611 13.75L7.51443 10.8034L8.69443 9.62504L10.4619 11.3934L13.4086 8.44671H13.4078Z" fill="#757680"/>
</svg>
