<svg width="21" height="20" viewBox="0 0 21 20" fill="none" xmlns="http://www.w3.org/2000/svg">
<path d="M10.8783 1.6665C15.4783 1.6665 19.2116 5.39984 19.2116 9.99984C19.2116 14.5998 15.4783 18.3332 10.8783 18.3332C6.27826 18.3332 2.54492 14.5998 2.54492 9.99984C2.54492 5.39984 6.27826 1.6665 10.8783 1.6665ZM5.89742 12.8465C7.12076 14.6715 8.95742 15.8332 11.0116 15.8332C13.0649 15.8332 14.9024 14.6723 16.1249 12.8465C14.738 11.5503 12.9099 10.8305 11.0116 10.8332C9.11301 10.8303 7.28452 11.5501 5.89742 12.8465ZM10.8783 9.1665C11.5413 9.1665 12.1772 8.90311 12.646 8.43427C13.1149 7.96543 13.3783 7.32955 13.3783 6.6665C13.3783 6.00346 13.1149 5.36758 12.646 4.89874C12.1772 4.4299 11.5413 4.1665 10.8783 4.1665C10.2152 4.1665 9.57933 4.4299 9.11049 4.89874C8.64165 5.36758 8.37826 6.00346 8.37826 6.6665C8.37826 7.32955 8.64165 7.96543 9.11049 8.43427C9.57933 8.90311 10.2152 9.1665 10.8783 9.1665Z" fill="#757680"/>
</svg>
