<svg width="21" height="20" viewBox="0 0 21 20" fill="none" xmlns="http://www.w3.org/2000/svg">
<path fill-rule="evenodd" clip-rule="evenodd" d="M18.5 3.25H3.5V4.75H18.5V3.25ZM11.75 16.75V18.25H10.25V16.75H4.25C3.83579 16.75 3.5 16.4142 3.5 16V5.50002H18.5V16C18.5 16.4142 18.1642 16.75 17.75 16.75H11.75ZM7.99958 8.49997C6.75694 8.49997 5.74958 9.50733 5.74958 10.75C5.74958 11.9926 6.75694 13 7.99958 13C9.24222 13 10.2496 11.9926 10.2496 10.75H7.99958V8.49997ZM11.7499 9.99997V8.49997H16.2499V9.99997H11.7499ZM11.7499 11.4999V12.9999H16.2499V11.4999H11.7499Z" fill="#757680"/>
</svg>
