<svg width="21" height="20" viewBox="0 0 21 20" fill="none" xmlns="http://www.w3.org/2000/svg">
<path d="M6.71159 5.83317V2.49984C6.71159 2.27882 6.79939 2.06686 6.95567 1.91058C7.11195 1.7543 7.32391 1.6665 7.54492 1.6665H18.3783C18.5993 1.6665 18.8112 1.7543 18.9675 1.91058C19.1238 2.06686 19.2116 2.27882 19.2116 2.49984V13.3332C19.2116 13.5542 19.1238 13.7661 18.9675 13.9224C18.8112 14.0787 18.5993 14.1665 18.3783 14.1665H15.0449V17.494C15.0449 17.9573 14.6708 18.3332 14.2058 18.3332H3.38409C3.27386 18.3333 3.16469 18.3116 3.06282 18.2695C2.96096 18.2274 2.86841 18.1656 2.79046 18.0876C2.71252 18.0097 2.65071 17.9171 2.60858 17.8153C2.56644 17.7134 2.54481 17.6042 2.54492 17.494L2.54742 6.67234C2.54742 6.209 2.92159 5.83317 3.38659 5.83317H6.71159ZM8.37826 5.83317H14.2058C14.6691 5.83317 15.0449 6.20734 15.0449 6.67234V12.4998H17.5449V3.33317H8.37826V5.83317ZM7.96409 14.9998L12.6774 10.2857L11.4991 9.10734L7.96409 12.6432L6.19492 10.8748L5.01659 12.0532L7.96409 14.9998Z" fill="#757680"/>
</svg>
