<svg width="26" height="26" viewBox="0 0 26 26" fill="none" xmlns="http://www.w3.org/2000/svg">
<path fill-rule="evenodd" clip-rule="evenodd" d="M21.3334 5.5H4.66675V7.16667H21.3334V5.5ZM13.8334 20.5V22.1667H12.1667V20.5H5.50008C5.03984 20.5 4.66675 20.1269 4.66675 19.6667V8H21.3334V19.6667C21.3334 20.1269 20.9603 20.5 20.5001 20.5H13.8334ZM9.66675 11.3333C8.28604 11.3333 7.16675 12.4526 7.16675 13.8333C7.16675 15.214 8.28604 16.3333 9.66675 16.3333C11.0475 16.3333 12.1667 15.214 12.1667 13.8333H9.66675V11.3333ZM13.8334 13V11.3333H18.8334V13H13.8334ZM13.8334 14.6667V16.3333H18.8334V14.6667H13.8334Z" fill="white"/>
</svg>
