<svg width="26" height="26" viewBox="0 0 26 26" fill="none" xmlns="http://www.w3.org/2000/svg">
<path fill-rule="evenodd" clip-rule="evenodd" d="M20.3359 6.81261L19.1584 5.63428L15.9167 8.87511L17.9792 10.9376L15.9167 13.0001L17.9792 15.0634L15.9167 17.1251L19.1576 20.3668L20.3359 19.1884L18.2734 17.1259L20.3359 15.0634L18.2734 13.0001L20.3359 10.9376L18.2734 8.87511L20.3359 6.81261ZM13.8334 6.37928C13.8333 6.28327 13.8 6.19025 13.7392 6.11594V6.11511C13.6692 6.02953 13.568 5.97529 13.458 5.96435C13.348 5.95341 13.2381 5.98666 13.1526 6.05678L8.74091 9.66678H5.50008C5.03984 9.66678 4.66675 10.0399 4.66675 10.5001V15.5001C4.66675 15.9603 5.03984 16.3334 5.50008 16.3334L8.74175 16.3326L13.1526 19.9434C13.2772 20.0456 13.4495 20.0668 13.5951 19.9978C13.7407 19.9288 13.8335 19.7821 13.8334 19.6209V6.37928Z" fill="white"/>
</svg>
