<svg fill="none" height="20" width="20" viewBox="0 0 20 20"><defs/><path fill="#1C2538" fill-rule="evenodd" d="M4.2 3.3c-.5 0-.9.4-.9.9v11.6c0 .5.4.9.9.9h11.6c.5 0 .9-.4.9-.9V4.2c0-.5-.4-.9-.9-.9H4.2zm-2.5.9c0-1.4 1-2.5 2.5-2.5h11.6c1.4 0 2.5 1 2.5 2.5v11.6c0 1.4-1 2.5-2.5 2.5H4.2a2.5 2.5 0 01-2.5-2.5V4.2z" clip-rule="evenodd"/><path fill="#1C2538" fill-rule="evenodd" d="M10 5.8c.5 0 .8.4.8.9v6.6a.8.8 0 01-1.6 0V6.7c0-.5.3-.9.8-.9z" clip-rule="evenodd"/><path fill="#1C2538" fill-rule="evenodd" d="M5.8 10c0-.5.4-.8.9-.8h6.6a.8.8 0 010 1.6H6.7a.8.8 0 01-.9-.8z" clip-rule="evenodd"/></svg>