<svg fill="none" width="40" viewBox="0 0 40 16"><defs/><g clip-path="url(#clip0)"><path fill="#1C2538" fill-rule="evenodd" d="M3 .5a3 3 0 00-3 3v9a3 3 0 003 3h34a3 3 0 003-3v-9a3 3 0 00-3-3H3zm2 4v6.9h1.6v-.8l.4.4c.1.2.3.3.5.3l.6.2a2 2 0 001.8-1.2c.2-.4.3-.9.3-1.5s0-1-.3-1.5a2 2 0 00-2.5-1l-.4.4c-.2.1-.3.3-.3.4V4.5H5zm1.7 5v-.7-.7l.4-.5.5-.2.5.2.3.5.1.7-.1.7c0 .2-.2.4-.3.5l-.5.2c-.2 0-.4 0-.5-.2a1 1 0 01-.4-.5zm7.7-3.3v3l-.1.5-.3.3-.5.1c-.2 0-.4 0-.6-.2a1 1 0 01-.2-.7v-3h-1.6v3.3c0 .4 0 .8.2 1a1.7 1.7 0 001.6 1c.3 0 .7-.1 1-.3.2-.2.4-.4.5-.8v1h1.7V6.2h-1.7zm5.6 0v1.2h-1v2.4l.1.2.2.2h.2a1.2 1.2 0 00.4 0l.2 1.1a7.6 7.6 0 01-.8.2c-.4 0-.7 0-1-.2-.3 0-.5-.2-.6-.5-.2-.2-.3-.5-.3-.8V7.4h-.6V6.2h.6V5h1.7v1.2h1zm3.8 1.2V6.2h-1V5h-1.6v1.2h-.7v1.2h.7V10c0 .3 0 .6.2.8.2.3.4.4.6.5l1 .2a2.8 2.8 0 00.9-.2l-.3-1.2a3 3 0 01-.3 0H23 23V7.3h.9zm3.2 4.1c-.6 0-1-.1-1.4-.3l-1-1a3 3 0 01-.2-1.4c0-.5 0-1 .3-1.4.2-.4.5-.7.9-.9.4-.2.8-.3 1.4-.3.5 0 1 0 1.4.3.4.2.7.5.9 1 .2.3.3.8.3 1.3 0 .6-.1 1-.3 1.4-.2.4-.5.7-1 1-.3.2-.8.3-1.3.3zm0-1.2l.5-.2.3-.5.1-.8v-.7l-.4-.5a.7.7 0 00-.5-.2c-.2 0-.4 0-.5.2-.2 0-.3.3-.3.5l-.1.7v.8l.4.5.5.2zm5.1 1.1v-3l.1-.5.3-.3h.5c.2 0 .4 0 .6.2l.2.6v3h1.6V8.1c0-.4 0-.7-.2-1-.1-.3-.3-.5-.6-.7-.3-.2-.6-.2-1-.2-.3 0-.7 0-1 .2l-.5.8v-1h-1.6v5.2H32z" clip-rule="evenodd"/></g><defs><clipPath id="clip0"><rect width="40" height="15" y=".5" fill="#fff" rx="3"/></clipPath></defs></svg>