<svg fill="none" width="16" height="17" viewBox="0 0 16 17"><defs/><path class="svg-fill" fill="#B7BABF" fill-rule="evenodd" d="M2.7 3.2c-.4 0-.7.3-.7.6v6.7c0 .4.3.7.7.7h10.6c.4 0 .7-.3.7-.7V3.8c0-.3-.3-.6-.7-.6H2.7zm-2 .6c0-1 .9-2 2-2h10.6a2 2 0 012 2v6.7a2 2 0 01-2 2H2.7a2 2 0 01-2-2V3.8zM4.7 14.5c0-.4.3-.7.6-.7h5.4a.7.7 0 010 1.4H5.3a.7.7 0 01-.6-.7z" clip-rule="evenodd"/><path class="svg-fill" fill="#B7BABF" fill-rule="evenodd" d="M8 11.2c.4 0 .7.3.7.6v2.7a.7.7 0 11-1.4 0v-2.7c0-.3.3-.6.7-.6z" clip-rule="evenodd"/></svg>