<svg width="84" height="16" viewBox="0 0 84 16" fill="none" xmlns="http://www.w3.org/2000/svg">
<g clip-path="url(#clip0)">
<path fill-rule="evenodd" clip-rule="evenodd" d="M3 0.5C1.34315 0.5 0 1.84315 0 3.5V12.5C0 14.1569 1.34314 15.5 3 15.5H81C82.6569 15.5 84 14.1569 84 12.5V3.5C84 1.84315 82.6569 0.5 81 0.5H3ZM29.0332 11.5H30.6836V4H29.0332V11.5ZM6.97266 6.2168L7.02637 6.83691C7.39095 6.3584 7.89388 6.11914 8.53516 6.11914C9.08529 6.11914 9.49544 6.28353 9.76562 6.6123C10.0391 6.94108 10.1807 7.43587 10.1904 8.09668V11.5H8.54004V8.16504C8.54004 7.89811 8.48633 7.7028 8.37891 7.5791C8.27148 7.45215 8.07617 7.38867 7.79297 7.38867C7.4707 7.38867 7.23145 7.51562 7.0752 7.76953V11.5H5.42969V6.2168H6.97266ZM13.6621 11.5977C12.8516 11.5977 12.1956 11.3568 11.6943 10.875C11.193 10.39 10.9424 9.76009 10.9424 8.98535V8.84863C10.9424 8.30827 11.0417 7.83138 11.2402 7.41797C11.4421 7.00456 11.735 6.68555 12.1191 6.46094C12.5033 6.23307 12.959 6.11914 13.4863 6.11914C14.2285 6.11914 14.8145 6.35026 15.2441 6.8125C15.6738 7.27148 15.8887 7.91276 15.8887 8.73633V9.37598H12.6172C12.6758 9.6722 12.8044 9.90495 13.0029 10.0742C13.2015 10.2435 13.4587 10.3281 13.7744 10.3281C14.2952 10.3281 14.7021 10.1458 14.9951 9.78125L15.7471 10.6699C15.542 10.9531 15.2507 11.1794 14.873 11.3486C14.4987 11.5146 14.0951 11.5977 13.6621 11.5977ZM13.4766 7.38867C12.9948 7.38867 12.7083 7.70768 12.6172 8.3457H14.2773V8.21875C14.2839 7.95508 14.2171 7.75163 14.0771 7.6084C13.9372 7.46191 13.737 7.38867 13.4766 7.38867ZM21.6504 6.2168L21.1182 9.33203L20.2881 6.2168H19.1406L18.3008 9.40527L17.7783 6.2168H16.2012L17.4463 11.5H18.8379L19.7168 8.36523L20.5908 11.5H21.9824L23.2275 6.2168H21.6504ZM26.5869 10.0156C26.5869 9.87565 26.5137 9.76335 26.3672 9.67871C26.2207 9.59408 25.9424 9.50618 25.5322 9.41504C25.1221 9.32389 24.7835 9.20508 24.5166 9.05859C24.2497 8.90885 24.0462 8.72819 23.9062 8.5166C23.7663 8.30501 23.6963 8.0625 23.6963 7.78906C23.6963 7.30404 23.8965 6.90527 24.2969 6.59277C24.6973 6.27702 25.2214 6.11914 25.8691 6.11914C26.5658 6.11914 27.1257 6.27702 27.5488 6.59277C27.972 6.90853 28.1836 7.32357 28.1836 7.83789H26.5332C26.5332 7.41471 26.3102 7.20312 25.8643 7.20312C25.6917 7.20312 25.5469 7.25195 25.4297 7.34961C25.3125 7.44401 25.2539 7.56283 25.2539 7.70605C25.2539 7.85254 25.3255 7.97135 25.4688 8.0625C25.612 8.15365 25.8398 8.22852 26.1523 8.28711C26.4681 8.3457 26.7448 8.41569 26.9824 8.49707C27.7767 8.77051 28.1738 9.26042 28.1738 9.9668C28.1738 10.4486 27.959 10.8408 27.5293 11.1436C27.1029 11.4463 26.5495 11.5977 25.8691 11.5977C25.4167 11.5977 25.013 11.5163 24.6582 11.3535C24.3034 11.1908 24.0267 10.9694 23.8281 10.6895C23.6296 10.4095 23.5303 10.1149 23.5303 9.80566H25.0684C25.0749 10.0498 25.1562 10.2288 25.3125 10.3428C25.4688 10.4535 25.6689 10.5088 25.9131 10.5088C26.1377 10.5088 26.3053 10.4632 26.416 10.3721C26.5299 10.2809 26.5869 10.1621 26.5869 10.0156ZM34.2578 11.5977C33.4473 11.5977 32.7913 11.3568 32.29 10.875C31.7887 10.39 31.5381 9.76009 31.5381 8.98535V8.84863C31.5381 8.30827 31.6374 7.83138 31.8359 7.41797C32.0378 7.00456 32.3307 6.68555 32.7148 6.46094C33.099 6.23307 33.5547 6.11914 34.082 6.11914C34.8242 6.11914 35.4102 6.35026 35.8398 6.8125C36.2695 7.27148 36.4844 7.91276 36.4844 8.73633V9.37598H33.2129C33.2715 9.6722 33.4001 9.90495 33.5986 10.0742C33.7972 10.2435 34.0544 10.3281 34.3701 10.3281C34.8909 10.3281 35.2979 10.1458 35.5908 9.78125L36.3428 10.6699C36.1377 10.9531 35.8464 11.1794 35.4688 11.3486C35.0944 11.5146 34.6908 11.5977 34.2578 11.5977ZM34.0723 7.38867C33.5905 7.38867 33.304 7.70768 33.2129 8.3457H34.873V8.21875C34.8796 7.95508 34.8128 7.75163 34.6729 7.6084C34.5329 7.46191 34.3327 7.38867 34.0723 7.38867ZM39.0674 6.2168V4.90332H37.4219V6.2168H36.748V7.35938H37.4219V9.98145C37.4219 10.5251 37.557 10.9303 37.8271 11.1973C38.0973 11.4642 38.5156 11.5977 39.082 11.5977C39.4043 11.5977 39.7135 11.5505 40.0098 11.4561V10.2793C39.8991 10.2988 39.7624 10.3086 39.5996 10.3086C39.388 10.3086 39.2464 10.2695 39.1748 10.1914C39.1032 10.1133 39.0674 9.97493 39.0674 9.77637V7.35938H39.9365V6.2168H39.0674ZM42.5049 4.90332V6.2168H43.374V7.35938H42.5049V9.77637C42.5049 9.97493 42.5407 10.1133 42.6123 10.1914C42.6839 10.2695 42.8255 10.3086 43.0371 10.3086C43.1999 10.3086 43.3366 10.2988 43.4473 10.2793V11.4561C43.151 11.5505 42.8418 11.5977 42.5195 11.5977C41.9531 11.5977 41.5348 11.4642 41.2646 11.1973C40.9945 10.9303 40.8594 10.5251 40.8594 9.98145V7.35938H40.1855V6.2168H40.8594V4.90332H42.5049ZM44.6143 10.875C45.1156 11.3568 45.7715 11.5977 46.582 11.5977C47.015 11.5977 47.4186 11.5146 47.793 11.3486C48.1706 11.1794 48.4619 10.9531 48.667 10.6699L47.915 9.78125C47.6221 10.1458 47.2152 10.3281 46.6943 10.3281C46.3786 10.3281 46.1214 10.2435 45.9229 10.0742C45.7243 9.90495 45.5957 9.6722 45.5371 9.37598H48.8086V8.73633C48.8086 7.91276 48.5938 7.27148 48.1641 6.8125C47.7344 6.35026 47.1484 6.11914 46.4062 6.11914C45.8789 6.11914 45.4232 6.23307 45.0391 6.46094C44.6549 6.68555 44.362 7.00456 44.1602 7.41797C43.9616 7.83138 43.8623 8.30827 43.8623 8.84863V8.98535C43.8623 9.76009 44.113 10.39 44.6143 10.875ZM45.5371 8.3457C45.6283 7.70768 45.9147 7.38867 46.3965 7.38867C46.6569 7.38867 46.8571 7.46191 46.9971 7.6084C47.137 7.75163 47.2038 7.95508 47.1973 8.21875V8.3457H45.5371ZM52.6709 7.70605L52.1289 7.66699C51.6113 7.66699 51.2793 7.82975 51.1328 8.15527V11.5H49.4873V6.2168H51.0303L51.084 6.89551C51.3607 6.37793 51.7464 6.11914 52.2412 6.11914C52.417 6.11914 52.57 6.13867 52.7002 6.17773L52.6709 7.70605ZM56.3428 10.875C56.8441 11.3568 57.5 11.5977 58.3105 11.5977C58.7435 11.5977 59.1471 11.5146 59.5215 11.3486C59.8991 11.1794 60.1904 10.9531 60.3955 10.6699L59.6436 9.78125C59.3506 10.1458 58.9437 10.3281 58.4229 10.3281C58.1071 10.3281 57.8499 10.2435 57.6514 10.0742C57.4528 9.90495 57.3242 9.6722 57.2656 9.37598H60.5371V8.73633C60.5371 7.91276 60.3223 7.27148 59.8926 6.8125C59.4629 6.35026 58.877 6.11914 58.1348 6.11914C57.6074 6.11914 57.1517 6.23307 56.7676 6.46094C56.3835 6.68555 56.0905 7.00456 55.8887 7.41797C55.6901 7.83138 55.5908 8.30827 55.5908 8.84863V8.98535C55.5908 9.76009 55.8415 10.39 56.3428 10.875ZM57.2656 8.3457C57.3568 7.70768 57.6432 7.38867 58.125 7.38867C58.3854 7.38867 58.5856 7.46191 58.7256 7.6084C58.8656 7.75163 58.9323 7.95508 58.9258 8.21875V8.3457H57.2656ZM62.7588 6.2168L62.8125 6.83691C63.1868 6.3584 63.6898 6.11914 64.3213 6.11914C64.9886 6.11914 65.4395 6.38444 65.6738 6.91504C66.0319 6.38444 66.5495 6.11914 67.2266 6.11914C68.2975 6.11914 68.8477 6.76693 68.877 8.0625V11.5H67.2266V8.16504C67.2266 7.89486 67.181 7.69792 67.0898 7.57422C66.9987 7.45052 66.8327 7.38867 66.5918 7.38867C66.2663 7.38867 66.0238 7.53353 65.8643 7.82324L65.8691 7.8916V11.5H64.2188V8.1748C64.2188 7.89811 64.1748 7.69792 64.0869 7.57422C63.999 7.45052 63.8314 7.38867 63.584 7.38867C63.2682 7.38867 63.0273 7.53353 62.8613 7.82324V11.5H61.2158V6.2168H62.7588ZM72.6367 11.0264C72.6823 11.2347 72.7344 11.3926 72.793 11.5H74.4385V11.417C74.2952 11.1598 74.2204 10.7887 74.2139 10.3037V7.96484C74.2041 7.39193 74.0039 6.94108 73.6133 6.6123C73.2227 6.28353 72.6904 6.11914 72.0166 6.11914C71.3428 6.11914 70.7878 6.27865 70.3516 6.59766C69.9186 6.91667 69.7021 7.33171 69.7021 7.84277H71.3477C71.3477 7.45866 71.543 7.2666 71.9336 7.2666C72.3535 7.2666 72.5635 7.50911 72.5635 7.99414V8.27246H72.0557C71.2484 8.27246 70.6331 8.41895 70.21 8.71191C69.7868 9.00488 69.5752 9.43783 69.5752 10.0107C69.5752 10.4665 69.7494 10.8457 70.0977 11.1484C70.446 11.4479 70.8691 11.5977 71.3672 11.5977C71.9108 11.5977 72.334 11.4072 72.6367 11.0264ZM72.2705 10.2939C72.137 10.3818 71.9678 10.4258 71.7627 10.4258C71.6064 10.4258 71.4779 10.3802 71.377 10.2891C71.276 10.1947 71.2256 10.0726 71.2256 9.92285C71.2256 9.40853 71.512 9.15137 72.085 9.15137H72.5635V9.99609C72.5049 10.1068 72.4072 10.2061 72.2705 10.2939ZM76.8652 11.5H75.2148V6.2168H76.8652V11.5ZM75.1172 4.85449C75.1172 4.62012 75.2018 4.42806 75.3711 4.27832C75.5404 4.12858 75.7601 4.05371 76.0303 4.05371C76.3005 4.05371 76.5202 4.12858 76.6895 4.27832C76.8587 4.42806 76.9434 4.62012 76.9434 4.85449C76.9434 5.08887 76.8587 5.28092 76.6895 5.43066C76.5202 5.5804 76.3005 5.65527 76.0303 5.65527C75.7601 5.65527 75.5404 5.5804 75.3711 5.43066C75.2018 5.28092 75.1172 5.08887 75.1172 4.85449ZM77.9688 11.5H79.6191V4H77.9688V11.5Z" fill="#1C2538" class="svg-fill"/>
</g>
<defs>
<clipPath id="clip0">
<rect y="0.5" width="84" height="15" rx="3" fill="white"/>
</clipPath>
</defs>
</svg>
