<svg width="16" height="17" viewBox="0 0 16 17" fill="none" xmlns="http://www.w3.org/2000/svg">
<path d="M13.16 6.05337L9.53334 2.05337C9.47101 1.98431 9.39492 1.92906 9.30995 1.89117C9.22499 1.85328 9.13303 1.83359 9.04001 1.83337H4.37334C4.15184 1.83073 3.93199 1.87175 3.72634 1.95408C3.52069 2.03641 3.33327 2.15844 3.17479 2.31321C3.01631 2.46798 2.88987 2.65245 2.80268 2.85608C2.7155 3.05972 2.66928 3.27854 2.66667 3.50004V13.5C2.66928 13.7215 2.7155 13.9404 2.80268 14.144C2.88987 14.3476 3.01631 14.5321 3.17479 14.6869C3.33327 14.8416 3.52069 14.9637 3.72634 15.046C3.93199 15.1283 4.15184 15.1693 4.37334 15.1667H11.6267C11.8482 15.1693 12.068 15.1283 12.2737 15.046C12.4793 14.9637 12.6667 14.8416 12.8252 14.6869C12.9837 14.5321 13.1101 14.3476 13.1973 14.144C13.2845 13.9404 13.3307 13.7215 13.3333 13.5V6.50004C13.3329 6.33481 13.2711 6.17564 13.16 6.05337ZM11.7667 6.50004H9.14C9.00257 6.4865 8.87594 6.41953 8.78741 6.31354C8.69888 6.20755 8.65552 6.07102 8.66667 5.93337V3.16671H8.74L11.7667 6.50004ZM11.6267 13.8334H4.37334C4.32692 13.8361 4.28043 13.8296 4.23652 13.8143C4.19262 13.799 4.15216 13.7752 4.11748 13.7442C4.0828 13.7132 4.05457 13.6757 4.03441 13.6338C4.01425 13.5919 4.00256 13.5465 4.00001 13.5V3.50004C4.00256 3.45361 4.01425 3.40815 4.03441 3.36625C4.05457 3.32435 4.0828 3.28684 4.11748 3.25588C4.15216 3.22491 4.19262 3.20109 4.23652 3.18579C4.28043 3.17049 4.32692 3.164 4.37334 3.16671H7.33334V5.93337C7.32258 6.42445 7.50651 6.89986 7.84498 7.25582C8.18346 7.61178 8.649 7.81941 9.14 7.83337H12V13.5C11.9975 13.5465 11.9858 13.5919 11.9656 13.6338C11.9454 13.6757 11.9172 13.7132 11.8825 13.7442C11.8478 13.7752 11.8074 13.799 11.7635 13.8143C11.7196 13.8296 11.6731 13.8361 11.6267 13.8334Z" fill="white"/>
</svg>
