<svg width="24" height="24" viewBox="0 0 24 24" fill="none" xmlns="http://www.w3.org/2000/svg">
<path d="M14.828 7.75689L9.17196 13.4139C8.912 13.665 8.80775 14.0368 8.89926 14.3864C8.99078 14.736 9.26382 15.0091 9.61345 15.1006C9.96308 15.1921 10.3349 15.0878 10.586 14.8279L16.243 9.17189C17.4146 8.00022 17.4146 6.10056 16.243 4.92889C15.0713 3.75722 13.1716 3.75722 12 4.92889L6.34296 10.5859C5.05321 11.8435 4.53968 13.6978 4.99869 15.4397C5.45771 17.1817 6.81828 18.5421 8.56032 19.0008C10.3023 19.4596 12.1565 18.9458 13.414 17.6559L19.071 11.9999L20.485 13.4139L14.828 19.0709C13.0595 20.8394 10.4819 21.53 8.06613 20.8827C5.65036 20.2354 3.76344 18.3485 3.11613 15.9327C2.46883 13.5169 3.15949 10.9394 4.92796 9.17089L10.586 3.51489C12.5479 1.62003 15.6664 1.64713 17.5951 3.5758C19.5237 5.50446 19.5508 8.62299 17.656 10.5849L12 16.2439C11.2418 17.0018 10.137 17.2977 9.1015 17.0202C8.06605 16.7426 7.25734 15.9337 6.98 14.8982C6.70267 13.8626 6.99884 12.7578 7.75696 11.9999L13.414 6.34289L14.828 7.75689Z" fill="#B7BABF" class="svg-fill"/>
</svg>
