<svg width="24" height="24" viewBox="0 0 24 24" fill="none" xmlns="http://www.w3.org/2000/svg">
<path fill-rule="evenodd" clip-rule="evenodd" d="M18 10L17 9.001L18.003 7.997C19.002 6.996 20 4.997 21 2C6.31105 2 4.08854 15.4254 3.06361 21.6166C3.0419 21.7477 3.02074 21.8756 3 22H4.998C5.664 18.667 7.331 16.834 10 16.5C14 16 17 13 18 10ZM6.334 15.819C6.51 15.236 6.707 14.66 6.94 14.036H6.939C8.995 8.51 12.42 5.085 18.013 4.218C17.5 5.362 17.015 6.156 16.585 6.586L15.585 7.587L14.172 9.002L15.628 10.457C14.498 12.542 12.265 14.201 9.752 14.515C8.435 14.68 7.294 15.122 6.334 15.819Z" fill="#B7BABF" class="svg-fill"/>
</svg>
