<svg width="26" height="26" viewBox="0 0 26 26" fill="none" xmlns="http://www.w3.org/2000/svg">
<path d="M6.33341 13.0001H8.83341C9.75389 13.0001 10.5001 13.7463 10.5001 14.6667V18.8334C10.5001 19.7539 9.75389 20.5001 8.83341 20.5001H6.33341C5.41294 20.5001 4.66675 19.7539 4.66675 18.8334V13.0001C4.66675 8.39758 8.39758 4.66675 13.0001 4.66675C17.6026 4.66675 21.3334 8.39758 21.3334 13.0001V18.8334C21.3334 19.7539 20.5872 20.5001 19.6667 20.5001H17.1667C16.2463 20.5001 15.5001 19.7539 15.5001 18.8334V14.6667C15.5001 13.7463 16.2463 13.0001 17.1667 13.0001H19.6667C19.6667 9.31818 16.682 6.33341 13.0001 6.33341C9.31818 6.33341 6.33341 9.31818 6.33341 13.0001Z" fill="white"/>
</svg>
