<?xml version="1.0" encoding="UTF-8"?>
<svg width="22px" height="21px" viewBox="0 0 22 21" version="1.1" xmlns="http://www.w3.org/2000/svg" xmlns:xlink="http://www.w3.org/1999/xlink">
    <!-- Generator: Sketch 62 (91390) - https://sketch.com -->
    <title>info</title>
    <desc>Created with Sketch.</desc>
    <g id="Page-1" stroke="none" stroke-width="1" fill="none" fill-rule="evenodd">
        <g id="info" fill-rule="nonzero">
            <path d="M1.99999864,8.99401 C1.99947,8.20621 2.15435,7.42605 2.45577,6.69819 C2.75718,5.97034 3.19921,5.30909 3.75655,4.75231 C4.31388,4.19553 4.97558,3.75416 5.70373,3.45348 C6.43189,3.15279 7.21221,2.99869 7.99999864,3.00000159 L15.9999986,3.00000159 C19.313,3.00000159 21.9999986,5.69501 21.9999986,8.99401 L21.9999986,21.0000016 L7.99999864,21.0000016 C4.687,21.0000016 1.99999864,18.305 1.99999864,15.006 L1.99999864,8.99401 Z M19.999998,18.9999974 L19.999998,8.99401 C19.9974,7.93451 19.5749,6.91925 18.8251,6.17063 C18.0754,5.42201 17.0595,5.00106 15.999998,4.9999974 L7.99999797,4.9999974 C7.47485,4.99869 6.9546,5.10106 6.4691,5.30123 C5.98359,5.50141 5.54238,5.79546 5.17076,6.16652 C4.79914,6.53758 4.50443,6.97835 4.30353,7.46356 C4.10262,7.94876 3.99947,8.46886 3.99999797,8.99401 L3.99999797,15.006 C4.00265,16.0655 4.42511,17.0808 5.17486,17.8294 C5.9246,18.578 6.9405,18.999 7.99999797,18.9999974 L19.999998,18.9999974 Z M14,11 L16,11 L16,13 L14,13 L14,11 Z M8,11 L10,11 L10,13 L8,13 L8,11 Z" id="Shape" fill="#1C2538"></path>
            <circle id="Oval" fill="#99DC13" class="svg-fill" cx="4" cy="4" r="4"></circle>
        </g>
    </g>
</svg>