<svg width="16" height="16" viewBox="0 0 16 16" fill="none" xmlns="http://www.w3.org/2000/svg">
<path d="M8.00002 3.99996C10.5267 3.99996 12.78 5.41996 13.88 7.66663C12.78 9.91329 10.5267 11.3333 8.00002 11.3333C5.47335 11.3333 3.22002 9.91329 2.12002 7.66663C3.22002 5.41996 5.47335 3.99996 8.00002 3.99996ZM8.00002 2.66663C4.66669 2.66663 1.82002 4.73996 0.666687 7.66663C1.82002 10.5933 4.66669 12.6666 8.00002 12.6666C11.3334 12.6666 14.18 10.5933 15.3334 7.66663C14.18 4.73996 11.3334 2.66663 8.00002 2.66663ZM8.00002 5.99996C8.92002 5.99996 9.66669 6.74663 9.66669 7.66663C9.66669 8.58663 8.92002 9.33329 8.00002 9.33329C7.08002 9.33329 6.33335 8.58663 6.33335 7.66663C6.33335 6.74663 7.08002 5.99996 8.00002 5.99996ZM8.00002 4.66663C6.34669 4.66663 5.00002 6.01329 5.00002 7.66663C5.00002 9.31996 6.34669 10.6666 8.00002 10.6666C9.65335 10.6666 11 9.31996 11 7.66663C11 6.01329 9.65335 4.66663 8.00002 4.66663Z" fill="#B7BABF" class="svg-fill"/>
</svg>
