<svg width="20" height="20" viewBox="0 0 20 20" fill="none" xmlns="http://www.w3.org/2000/svg">
<path d="M5.92046 7.32518C6.06502 7.85421 6.37946 8.32106 6.81539 8.65384C7.25131 8.98661 7.78454 9.16687 8.33296 9.16685H11.6663C12.648 9.16692 13.5981 9.51354 14.3493 10.1456C15.1004 10.7777 15.6043 11.6546 15.7721 12.6218C16.3377 12.8064 16.819 13.1865 17.1295 13.6939C17.4401 14.2014 17.5596 14.8029 17.4665 15.3905C17.3735 15.9781 17.074 16.5133 16.6219 16.8999C16.1697 17.2866 15.5946 17.4994 14.9996 17.5002C14.4176 17.5006 13.8536 17.298 13.405 16.9271C12.9563 16.5563 12.6511 16.0406 12.542 15.4688C12.4329 14.8971 12.5267 14.3052 12.8072 13.7952C13.0878 13.2852 13.5375 12.8891 14.0788 12.6752C13.9342 12.1461 13.6198 11.6793 13.1839 11.3465C12.7479 11.0137 12.2147 10.8335 11.6663 10.8335H8.33296C7.4312 10.8348 6.55357 10.5423 5.83296 10.0002V12.6418C6.38921 12.8384 6.85804 13.2253 7.1566 13.7342C7.45515 14.243 7.5642 14.841 7.46447 15.4225C7.36474 16.004 7.06265 16.5315 6.61161 16.9117C6.16056 17.292 5.58959 17.5006 4.99963 17.5006C4.40967 17.5006 3.8387 17.292 3.38765 16.9117C2.9366 16.5315 2.63452 16.004 2.53479 15.4225C2.43506 14.841 2.54411 14.243 2.84266 13.7342C3.14122 13.2253 3.61005 12.8384 4.1663 12.6418V7.35851C3.61378 7.16344 3.1473 6.78055 2.84826 6.27665C2.54922 5.77276 2.43661 5.17986 2.53007 4.60142C2.62354 4.02298 2.91716 3.49572 3.35968 3.11165C3.8022 2.72758 4.36553 2.5111 4.95137 2.49996C5.53721 2.48883 6.10836 2.68376 6.56516 3.05074C7.02195 3.41772 7.33538 3.93344 7.45076 4.50791C7.56613 5.08239 7.47613 5.67914 7.19645 6.19403C6.91677 6.70892 6.46517 7.10926 5.92046 7.32518Z" fill="#757680"/>
</svg>
