<svg width="27" height="27" viewBox="0 0 27 27" fill="none" xmlns="http://www.w3.org/2000/svg">
<rect opacity="0.05" width="27" height="27" rx="7" fill="#1C2538"/>
<path fill-rule="evenodd" clip-rule="evenodd" d="M18.4115 7.235C17.3316 6.41167 15.8681 6 14.0208 6C12.6875 6 11.4896 6.29833 10.4271 6.895C9.36458 7.49167 8.52778 8.34833 7.91667 9.465C7.30556 10.5817 7 11.9267 7 13.5C7 14.7 7.18056 15.765 7.54167 16.695C7.90278 17.625 8.40451 18.41 9.04688 19.05C9.68924 19.69 10.4358 20.175 11.2865 20.505C12.1372 20.835 13.0486 21 14.0208 21C15.4605 21 16.6985 20.7048 17.735 20.1145L16.1701 18.3389L16.1719 18.3325L16.0588 18.384C15.514 18.6209 14.8867 18.7362 14.1771 18.73C13.1701 18.7167 12.3316 18.4933 11.6615 18.06C10.9913 17.6267 10.4896 17.0217 10.1562 16.245C9.82292 15.4683 9.65625 14.5533 9.65625 13.5C9.65625 12.4467 9.82465 11.5267 10.1615 10.74C10.4983 9.95333 11 9.34333 11.6667 8.91C12.3333 8.47667 13.1701 8.26667 14.1771 8.28L14.3012 8.28133C15.2454 8.30169 16.0269 8.55625 16.6458 9.045C17.2888 9.55271 17.7528 10.2305 18.0378 11.0785L20.2569 9.65816C20.1491 9.40104 20.0281 9.15644 19.894 8.92439C19.5086 8.25785 19.0144 7.69472 18.4115 7.235ZM20.9583 13.15H14.4884L13.331 15.04H18.2917L18.2684 15.1844C18.1377 15.9472 17.9024 16.5874 17.5625 17.105L17.4939 17.2058L19.1315 19.0396C19.5362 18.6228 19.8795 18.1479 20.1615 17.615C20.7205 16.5583 21 15.35 21 13.99C21 13.95 20.9965 13.8267 20.9896 13.62L20.9837 13.4744C20.9794 13.3835 20.9742 13.3052 20.9681 13.2394L20.9583 13.15Z" fill="white"/>
</svg>
