<svg width="16" height="17" viewBox="0 0 16 17" fill="none" xmlns="http://www.w3.org/2000/svg">
<path fill-rule="evenodd" clip-rule="evenodd" d="M1.33337 2.49998C1.33337 2.13179 1.63185 1.83331 2.00004 1.83331H6.66671C7.0349 1.83331 7.33337 2.13179 7.33337 2.49998V7.16665C7.33337 7.53484 7.0349 7.83331 6.66671 7.83331H2.00004C1.63185 7.83331 1.33337 7.53484 1.33337 7.16665V2.49998ZM2.66671 3.16665V6.49998H6.00004V3.16665H2.66671Z" fill="#8A8B93" class="svg-fill"/>
<path fill-rule="evenodd" clip-rule="evenodd" d="M8.66663 2.49998C8.66663 2.13179 8.9651 1.83331 9.33329 1.83331H14C14.3681 1.83331 14.6666 2.13179 14.6666 2.49998V7.16665C14.6666 7.53484 14.3681 7.83331 14 7.83331H9.33329C8.9651 7.83331 8.66663 7.53484 8.66663 7.16665V2.49998ZM9.99996 3.16665V6.49998H13.3333V3.16665H9.99996Z" fill="#8A8B93" class="svg-fill"/>
<path fill-rule="evenodd" clip-rule="evenodd" d="M8.66663 9.83335C8.66663 9.46516 8.9651 9.16669 9.33329 9.16669H14C14.3681 9.16669 14.6666 9.46516 14.6666 9.83335V14.5C14.6666 14.8682 14.3681 15.1667 14 15.1667H9.33329C8.9651 15.1667 8.66663 14.8682 8.66663 14.5V9.83335ZM9.99996 10.5V13.8334H13.3333V10.5H9.99996Z" fill="#8A8B93" class="svg-fill"/>
<path fill-rule="evenodd" clip-rule="evenodd" d="M1.33337 9.83335C1.33337 9.46516 1.63185 9.16669 2.00004 9.16669H6.66671C7.0349 9.16669 7.33337 9.46516 7.33337 9.83335V14.5C7.33337 14.8682 7.0349 15.1667 6.66671 15.1667H2.00004C1.63185 15.1667 1.33337 14.8682 1.33337 14.5V9.83335ZM2.66671 10.5V13.8334H6.00004V10.5H2.66671Z" fill="#8A8B93" class="svg-fill"/>
</svg>
