<svg fill="none" class="newsletter-mail" height="16" width="84" viewBox="0 0 84 16"><defs/><g clip-path="url(#clip0)"><path fill="#1C2538" fill-rule="evenodd" d="M3 .5a3 3 0 00-3 3v9a3 3 0 003 3h78a3 3 0 003-3v-9a3 3 0 00-3-3H3zm26 11h1.7V4H29v7.5zM7 6.2v.6c.4-.4.9-.7 1.5-.7s1 .2 1.3.5c.2.3.4.8.4 1.5v3.4H8.5V8.2l-.1-.6-.6-.2c-.3 0-.6.1-.7.4v3.7H5.4V6.2H7zm6.7 5.4c-.8 0-1.5-.2-2-.7-.5-.5-.8-1.1-.8-2 0-.6.1-1 .3-1.5.2-.4.5-.7 1-1 .3-.2.8-.3 1.3-.3.7 0 1.3.3 1.7.7.5.5.7 1.1.7 2v.6h-3.3c0 .3.2.5.4.7l.8.2c.5 0 .9-.2 1.2-.5l.7.9c-.2.3-.4.5-.8.6a3 3 0 01-1.2.3zm-.2-4.2c-.5 0-.8.3-.9 1h1.7v-.2c0-.2 0-.4-.2-.6l-.6-.2zm8.2-1.2L21 9.3l-.8-3H19l-.8 3.1-.5-3.2h-1.6l1.2 5.3h1.4l1-3.1.8 3.1H22l1.2-5.3h-1.5zm4.9 3.8c0-.1 0-.2-.2-.3l-.9-.3c-.4 0-.7-.2-1-.3l-.6-.6-.2-.7c0-.5.2-.9.6-1.2.4-.3 1-.5 1.6-.5.7 0 1.2.2 1.6.5.5.3.7.7.7 1.2h-1.7c0-.4-.2-.6-.6-.6l-.5.1-.1.4c0 .2 0 .3.2.4l.7.2.8.2c.8.3 1.2.8 1.2 1.5 0 .4-.2.8-.7 1.1-.4.3-1 .5-1.6.5-.5 0-.9 0-1.2-.2a2 2 0 01-.9-.7l-.3-.9h1.6c0 .2 0 .4.2.5.2.2.4.2.6.2l.5-.1.2-.4zm7.7 1.6c-.9 0-1.5-.2-2-.7-.5-.5-.8-1.1-.8-2 0-.6.1-1 .3-1.5.2-.4.5-.7 1-1 .3-.2.8-.3 1.3-.3.7 0 1.3.3 1.7.7.5.5.7 1.1.7 2v.6h-3.3c0 .3.2.5.4.7l.8.2c.5 0 .9-.2 1.2-.5l.7.9c-.2.3-.5.5-.8.6a3 3 0 01-1.2.3zM34 7.4c-.5 0-.8.3-.9 1H35v-.2c0-.2 0-.4-.2-.6l-.6-.2zm5-1.2V5h-1.7v1.3h-.7v1.2h.7V10c0 .5.2 1 .4 1.2.3.3.7.4 1.3.4l1-.1v-1.2h-.5l-.4-.1-.1-.4V7.4h.8V6.2h-.8zM42.5 5v1.3h.9v1.2h-.9v2.4l.1.4.4.1h.4v1.2a3 3 0 01-.9.1c-.5 0-1-.1-1.2-.4-.3-.3-.4-.7-.4-1.2V7.4h-.7V6.2h.7V5h1.6zm2.1 6c.5.5 1.2.7 2 .7.4 0 .8 0 1.2-.3.4-.1.7-.3.9-.6l-.8-1c-.3.4-.7.6-1.2.6-.3 0-.6 0-.8-.2l-.4-.7h3.3v-.7c0-.8-.2-1.4-.6-1.9-.5-.4-1-.7-1.8-.7-.5 0-1 .1-1.4.4-.3.2-.6.5-.8 1-.2.3-.3.8-.3 1.3V9c0 .8.2 1.4.7 1.9zm1-2.6c0-.6.3-1 .8-1 .3 0 .5.2.6.3l.2.6v.1h-1.7zm7-.6h-.5c-.5 0-.8.1-1 .5v3.3h-1.6V6.2H51V7c.4-.5.7-.8 1.2-.8h.5v1.6zm3.7 3.2c.5.5 1.2.7 2 .7.4 0 .8 0 1.2-.3.4-.1.7-.3.9-.6l-.8-1c-.2.4-.7.6-1.2.6-.3 0-.6 0-.7-.2-.2-.2-.4-.4-.4-.7h3.2v-.7c0-.8-.2-1.4-.6-1.9-.4-.4-1-.7-1.8-.7-.5 0-1 .1-1.3.4-.4.2-.7.5-1 1l-.2 1.3V9c0 .8.2 1.4.7 1.9zm1-2.6c0-.6.3-1 .8-1 .3 0 .5.2.6.3.2.2.2.4.2.6v.1h-1.6zm5.5-2v.5c.4-.4.9-.7 1.5-.7.7 0 1.1.3 1.4.8.3-.5.8-.8 1.5-.8 1.1 0 1.6.7 1.7 2v3.4h-1.7V8.2l-.1-.6-.5-.2c-.3 0-.6.1-.7.4v3.7h-1.7V8.2l-.1-.6-.5-.2c-.3 0-.6.1-.7.4v3.7h-1.7V6.2h1.6zm9.8 4.7l.2.5h1.6l-.2-1.2V8c0-.6-.2-1-.6-1.4-.4-.3-1-.5-1.6-.5-.7 0-1.2.2-1.6.5-.5.3-.7.7-.7 1.2h1.6c0-.3.2-.5.6-.5.5 0 .7.2.7.7v.3H72c-.9 0-1.5.1-1.9.4-.4.3-.6.7-.6 1.3 0 .5.1.8.5 1.1.3.3.8.5 1.3.5s1-.2 1.2-.6zm-.3-.7a1 1 0 01-.5.1l-.4-.1a.5.5 0 01-.2-.4c0-.5.3-.7.9-.7h.5v.8l-.3.3zm4.6 1.2h-1.7V6.2H77v5.3zM75 4.9c0-.3.1-.5.3-.6.1-.2.4-.2.6-.2.3 0 .5 0 .7.2.2.1.2.3.2.6 0 .2 0 .4-.2.5a1 1 0 01-.7.3 1 1 0 01-.6-.3.7.7 0 01-.3-.5zm2.9 6.6h1.6V4H78v7.5z" clip-rule="evenodd"/></g><defs><clipPath id="clip0"><rect width="84" height="15" y=".5" fill="#fff" rx="3"/></clipPath></defs></svg>