<svg fill="none" class="newsletter-mail-mobile" width="48" viewBox="0 0 48 20"><defs/><g clip-path="url(#clip0)"><path fill="#1C2538" fill-rule="evenodd" d="M3 0a3 3 0 00-3 3v14a3 3 0 003 3h41.5a3 3 0 003-3V3a3 3 0 00-3-3H3zm20.8 9.2h1.4V2.9h-1.4v6.3zM5.5 4.8v.5c.3-.4.7-.6 1.3-.6.4 0 .8.1 1 .4.2.3.3.7.3 1.2v2.9H6.8V6.4c0-.2 0-.4-.2-.5 0-.1-.2-.2-.5-.2-.2 0-.4.1-.6.4v3H4.2V4.9h1.3zM11 9.2c-.6 0-1.2-.2-1.6-.6a2 2 0 01-.6-1.5V7c0-.5 0-.9.2-1.2.2-.4.4-.6.7-.8.4-.2.7-.3 1.2-.3.6 0 1 .2 1.4.6.4.3.6.9.6 1.6v.5h-2.7l.3.6.6.2c.5 0 .8-.2 1-.5l.7.8c-.2.2-.4.4-.8.5-.3.2-.6.2-1 .2zM11 5.7c-.4 0-.7.3-.7.8h1.3l-.1-.6-.5-.2zm6.8-1l-.5 2.7-.7-2.6h-1L15 7.4l-.4-2.6H13l1 4.4h1.2l.8-2.6.7 2.6H18l1-4.4h-1.3zM21.8 8s0-.2-.2-.3l-.7-.2c-.3 0-.6-.1-.8-.3-.3 0-.4-.2-.5-.4a1.2 1.2 0 01.3-1.6 2 2 0 011.3-.4c.6 0 1 .1 1.4.4.4.2.5.6.5 1h-1.3c0-.3-.2-.5-.6-.5l-.4.1-.1.3c0 .1 0 .2.2.3l.5.2.7.2c.7.2 1 .6 1 1.2 0 .4-.2.7-.5 1-.4.2-.8.3-1.4.3-.4 0-.7 0-1-.2-.3 0-.5-.3-.7-.5-.2-.2-.2-.5-.2-.7h1.2l.2.4.5.1h.5l.1-.4zm6.4 1.3A2 2 0 0125.9 7c0-.5.1-.9.3-1.2.1-.4.4-.6.7-.8.3-.2.7-.3 1.1-.3.7 0 1.2.2 1.5.6.4.3.5.9.5 1.6v.5h-2.7l.3.6.7.2c.4 0 .8-.2 1-.5l.6.8c-.1.2-.4.4-.7.5-.3.2-.6.2-1 .2zM28 5.7c-.4 0-.6.3-.7.8h1.4c0-.3 0-.5-.2-.6 0-.1-.2-.2-.5-.2zm4.2-1v-1h-1.4v1h-.5v1h.5V8c0 .5.1.8.4 1 .2.2.5.3 1 .3h.8v-1h-.4l-.3-.1-.1-.4v-2h.7v-1h-.7zm2.9-1v1h.7v1H35v2.4h.7v1l-.7.1c-.5 0-.8 0-1-.3-.3-.2-.4-.5-.4-1V5.7H33v-1h.6v-1H35zm1.7 5c.4.3 1 .5 1.7.5.3 0 .7 0 1-.2l.7-.5-.6-.8c-.3.3-.6.5-1 .5a1 1 0 01-.7-.2 1 1 0 01-.3-.6h2.7v-.5c0-.7-.2-1.3-.5-1.6-.4-.4-.9-.6-1.5-.6-.4 0-.8 0-1.1.3-.3.2-.6.4-.8.8L36.2 7c0 .7.2 1.2.6 1.6zm.8-2.2c0-.5.3-.8.7-.8l.5.2.2.5v.1h-1.4zm6-.5H43c-.4 0-.7.1-.8.4v2.8h-1.4V4.8h1.3v.5c.2-.4.6-.6 1-.6h.4V6zM24.1 17h-1.4v-6.2h1.4v6.3zm-3.7 0H22v-4.3h-1.4V17zm.2-6l-.3.5c0 .2.1.4.3.5 0 .2.3.2.5.2s.4 0 .5-.2c.2-.1.3-.3.3-.5l-.3-.4a.8.8 0 00-.5-.2c-.2 0-.4 0-.5.2zm-16 5.6c.5.4 1 .6 1.7.6l1-.2.8-.6-.7-.7c-.2.3-.5.4-1 .4A1 1 0 016 16a1 1 0 01-.3-.6h2.7v-.5c0-.7-.2-1.2-.5-1.6-.4-.4-.9-.6-1.5-.6-.5 0-.8 0-1.2.3-.3.2-.5.4-.7.8-.2.3-.2.7-.2 1.2 0 .7.2 1.3.6 1.7zm.9-2.1c0-.6.3-.8.7-.8l.5.1c.1.2.2.3.1.5v.2H5.6zm4.6-1.3v-.5H8.8V17h1.3v-3c.2-.3.4-.4.6-.4l.4.1.2.5v2.8h1.3v-3c.2-.3.4-.4.6-.4l.4.1.2.5v2.8h1.3v-2.9c0-1-.4-1.6-1.3-1.6-.6 0-1 .2-1.3.7-.2-.5-.6-.7-1.2-.7-.5 0-.9.2-1.2.6zm8.3 3.9l-.1-.4c-.3.3-.6.5-1 .5-.5 0-.9-.2-1.1-.4-.3-.3-.5-.6-.5-1s.2-.8.5-1c.4-.3 1-.4 1.6-.4h.4v-.2c0-.4-.2-.6-.5-.6s-.5.1-.5.4h-1.4c0-.4.2-.7.6-1 .3-.3.8-.4 1.4-.4.5 0 1 .1 1.3.4.3.3.5.7.5 1.1v2c0 .4 0 .7.2 1h-1.4zm-.9-1h.5l.2-.3v-.7H18c-.5 0-.7.2-.7.7l.1.3h.3z" clip-rule="evenodd"/></g><defs><clipPath id="clip0"><rect width="47.5" height="20" fill="#fff" rx="3"/></clipPath></defs></svg>