<svg width="17" height="17" viewBox="0 0 17 17" fill="none" xmlns="http://www.w3.org/2000/svg">
<path fill-rule="evenodd" clip-rule="evenodd" d="M5.16663 4.49998C5.16663 4.13179 5.4651 3.83331 5.83329 3.83331H14.5C14.8681 3.83331 15.1666 4.13179 15.1666 4.49998C15.1666 4.86817 14.8681 5.16665 14.5 5.16665H5.83329C5.4651 5.16665 5.16663 4.86817 5.16663 4.49998Z" fill="#8A8B93" class="svg-fill"/>
<path fill-rule="evenodd" clip-rule="evenodd" d="M5.16663 8.49998C5.16663 8.13179 5.4651 7.83331 5.83329 7.83331H14.5C14.8681 7.83331 15.1666 8.13179 15.1666 8.49998C15.1666 8.86817 14.8681 9.16665 14.5 9.16665H5.83329C5.4651 9.16665 5.16663 8.86817 5.16663 8.49998Z" fill="#8A8B93" class="svg-fill"/>
<path fill-rule="evenodd" clip-rule="evenodd" d="M5.16663 12.5C5.16663 12.1318 5.4651 11.8333 5.83329 11.8333H14.5C14.8681 11.8333 15.1666 12.1318 15.1666 12.5C15.1666 12.8682 14.8681 13.1666 14.5 13.1666H5.83329C5.4651 13.1666 5.16663 12.8682 5.16663 12.5Z" fill="#8A8B93" class="svg-fill"/>
<path d="M3.16671 4.49998C3.16671 4.86817 2.86823 5.16665 2.50004 5.16665C2.13185 5.16665 1.83337 4.86817 1.83337 4.49998C1.83337 4.13179 2.13185 3.83331 2.50004 3.83331C2.86823 3.83331 3.16671 4.13179 3.16671 4.49998Z" fill="#8A8B93" class="svg-fill"/>
<path d="M3.16671 8.49998C3.16671 8.86817 2.86823 9.16665 2.50004 9.16665C2.13185 9.16665 1.83337 8.86817 1.83337 8.49998C1.83337 8.13179 2.13185 7.83331 2.50004 7.83331C2.86823 7.83331 3.16671 8.13179 3.16671 8.49998Z" fill="#8A8B93" class="svg-fill"/>
<path d="M3.16671 12.5C3.16671 12.8682 2.86823 13.1666 2.50004 13.1666C2.13185 13.1666 1.83337 12.8682 1.83337 12.5C1.83337 12.1318 2.13185 11.8333 2.50004 11.8333C2.86823 11.8333 3.16671 12.1318 3.16671 12.5Z" fill="#8A8B93" class="svg-fill"/>
</svg>
