<svg width="25" height="24" viewBox="0 0 25 24" fill="none" xmlns="http://www.w3.org/2000/svg">
<path d="M20.5 4H17.33L15.5 2H9.5L7.67 4H4.5C3.4 4 2.5 4.9 2.5 6V18C2.5 19.1 3.4 20 4.5 20H20.5C21.6 20 22.5 19.1 22.5 18V6C22.5 4.9 21.6 4 20.5 4ZM20.5 18H4.5V6H8.55L9.14 5.35L10.38 4H14.62L15.86 5.35L16.45 6H20.5V18ZM12.5 7C9.74 7 7.5 9.24 7.5 12C7.5 14.76 9.74 17 12.5 17C15.26 17 17.5 14.76 17.5 12C17.5 9.24 15.26 7 12.5 7ZM12.5 15.2C10.73 15.2 9.3 13.77 9.3 12C9.3 10.23 10.73 8.8 12.5 8.8C14.27 8.8 15.7 10.23 15.7 12C15.7 13.77 14.27 15.2 12.5 15.2Z" fill="#B7BABF" class="svg-fill"/>
</svg>
