<svg width="25" height="24" viewBox="0 0 25 24" fill="none" xmlns="http://www.w3.org/2000/svg">
<path fill-rule="evenodd" clip-rule="evenodd" d="M23.2071 3.29289C23.5976 3.68342 23.5976 4.31658 23.2071 4.70711L13.2071 14.7071C12.8166 15.0976 12.1834 15.0976 11.7929 14.7071L8.79289 11.7071C8.40237 11.3166 8.40237 10.6834 8.79289 10.2929C9.18342 9.90237 9.81658 9.90237 10.2071 10.2929L12.5 12.5858L21.7929 3.29289C22.1834 2.90237 22.8166 2.90237 23.2071 3.29289Z" fill="#B7BABF" class="svg-fill"/>
<path fill-rule="evenodd" clip-rule="evenodd" d="M5.5 4C5.23478 4 4.98043 4.10536 4.79289 4.29289C4.60536 4.48043 4.5 4.73478 4.5 5V19C4.5 19.2652 4.60536 19.5196 4.79289 19.7071C4.98043 19.8946 5.23478 20 5.5 20H19.5C19.7652 20 20.0196 19.8946 20.2071 19.7071C20.3946 19.5196 20.5 19.2652 20.5 19V12C20.5 11.4477 20.9477 11 21.5 11C22.0523 11 22.5 11.4477 22.5 12V19C22.5 19.7957 22.1839 20.5587 21.6213 21.1213C21.0587 21.6839 20.2957 22 19.5 22H5.5C4.70435 22 3.94129 21.6839 3.37868 21.1213C2.81607 20.5587 2.5 19.7957 2.5 19V5C2.5 4.20435 2.81607 3.44129 3.37868 2.87868C3.94129 2.31607 4.70435 2 5.5 2H16.5C17.0523 2 17.5 2.44772 17.5 3C17.5 3.55228 17.0523 4 16.5 4H5.5Z" fill="#B7BABF" class="svg-fill"/>
</svg>
