<svg width="26" height="26" viewBox="0 0 26 26" fill="none" xmlns="http://www.w3.org/2000/svg">
<path d="M20.7588 15.8862L19.1389 14.2573V10.2435C19.1604 8.75308 18.642 7.30515 17.6793 6.1671C16.7166 5.02905 15.3746 4.27775 13.9012 4.05192C13.0461 3.93931 12.1768 4.01036 11.3513 4.26033C10.5258 4.5103 9.76311 4.93344 9.11412 5.50152C8.46513 6.0696 7.94475 6.76956 7.58771 7.55469C7.23066 8.33982 7.04517 9.19206 7.04359 10.0546V14.2573L5.42369 15.8862C5.22022 16.0931 5.08224 16.3553 5.02699 16.6402C4.97175 16.925 5.0017 17.2199 5.1131 17.4878C5.2245 17.7557 5.4124 17.9849 5.65331 18.1466C5.89423 18.3083 6.17747 18.3954 6.46763 18.3971H9.49145V18.703C9.53348 19.6167 9.93598 20.4764 10.6107 21.0938C11.2855 21.7112 12.1775 22.0359 13.0912 21.9968C14.005 22.0359 14.897 21.7112 15.5717 21.0938C16.2465 20.4764 16.649 19.6167 16.691 18.703V18.3971H19.7148C20.005 18.3954 20.2882 18.3083 20.5291 18.1466C20.7701 17.9849 20.958 17.7557 21.0694 17.4878C21.1808 17.2199 21.2107 16.925 21.1555 16.6402C21.1002 16.3553 20.9622 16.0931 20.7588 15.8862ZM14.8911 18.703C14.8412 19.1359 14.6262 19.5328 14.2909 19.8111C13.9556 20.0894 13.5259 20.2276 13.0912 20.197C12.6566 20.2276 12.2268 20.0894 11.8915 19.8111C11.5562 19.5328 11.3412 19.1359 11.2913 18.703V18.3971H14.8911V18.703Z" fill="white"/>
</svg>
