<svg width="26" height="26" viewBox="0 0 26 26" fill="none" xmlns="http://www.w3.org/2000/svg">
<path fill-rule="evenodd" clip-rule="evenodd" d="M18.8334 21.3334H7.16675C5.78604 21.3334 4.66675 20.2141 4.66675 18.8334V5.50008C4.66675 5.03984 5.03984 4.66675 5.50008 4.66675H17.1667C17.627 4.66675 18.0001 5.03984 18.0001 5.50008V15.5001H21.3334V18.8334C21.3334 20.2141 20.2141 21.3334 18.8334 21.3334ZM18.0001 17.1667V18.8334C18.0001 19.2937 18.3732 19.6667 18.8334 19.6667C19.2937 19.6667 19.6667 19.2937 19.6667 18.8334V17.1667H18.0001ZM8.00008 10.5001V8.83341H14.6667V10.5001H8.00008ZM8.00008 12.1667V13.8334H14.6667V12.1667H8.00008ZM8.00008 17.1667V15.5001H12.1667V17.1667H8.00008Z" fill="white"/>
</svg>
