<svg width="16" height="17" viewBox="0 0 16 17" fill="none" xmlns="http://www.w3.org/2000/svg">
<path d="M12 13.1667H12.6667V5.052L11.448 3.83333H10.6667V6.5H4.66667V3.83333H3.33333V13.1667H4V8.5H12V13.1667ZM2.66667 2.5H12L13.8047 4.30467C13.9297 4.42966 14 4.5992 14 4.776V13.8333C14 14.0101 13.9298 14.1797 13.8047 14.3047C13.6797 14.4298 13.5101 14.5 13.3333 14.5H2.66667C2.48986 14.5 2.32029 14.4298 2.19526 14.3047C2.07024 14.1797 2 14.0101 2 13.8333V3.16667C2 2.98986 2.07024 2.82029 2.19526 2.69526C2.32029 2.57024 2.48986 2.5 2.66667 2.5ZM5.33333 9.83333V13.1667H10.6667V9.83333H5.33333Z" fill="white"/>
</svg>
