<svg width="20" height="20" viewBox="0 0 20 20" fill="none" xmlns="http://www.w3.org/2000/svg">
<path fill-rule="evenodd" clip-rule="evenodd" d="M18.595 17.4159L15.0258 13.8476C16.0901 12.5199 16.669 10.8684 16.6666 9.16675C16.6666 5.02675 13.3066 1.66675 9.16663 1.66675C5.02663 1.66675 1.66663 5.02675 1.66663 9.16675C1.66663 13.3067 5.02663 16.6667 9.16663 16.6667C10.8683 16.6692 12.5197 16.0903 13.8475 15.0259L17.4158 18.5951L18.595 17.4159ZM15 9.16675C15.0023 10.6838 14.4117 12.1417 13.3541 13.2292L13.2291 13.3542C12.1415 14.4118 10.6837 15.0025 9.16663 15.0001C5.94329 15.0001 3.33329 12.3892 3.33329 9.16675C3.33329 5.94341 5.94329 3.33341 9.16663 3.33341C12.3891 3.33341 15 5.94341 15 9.16675Z" fill="#1C2538"/>
</svg>
