<svg width="26" height="26" viewBox="0 0 26 26" fill="none" xmlns="http://www.w3.org/2000/svg">
<path fill-rule="evenodd" clip-rule="evenodd" d="M10.1364 4.28882C8.93621 4.68389 7.83076 5.32308 6.88959 6.16615V6.16707C7.2953 7.20405 7.20691 8.36932 6.64942 9.33324C6.09309 10.299 5.12703 10.9587 4.025 11.1253C3.76771 12.3621 3.76771 13.6386 4.025 14.8754C5.12686 15.0418 6.09288 15.7011 6.64942 16.6666C7.2072 17.6307 7.2956 18.7964 6.88959 19.8337C7.83084 20.6764 8.93629 21.3153 10.1364 21.7101C10.8316 20.8391 11.8857 20.3323 13.0001 20.3332C14.1143 20.3321 15.1684 20.8386 15.8638 21.7092C17.0639 21.3143 18.1693 20.6755 19.1106 19.8327C18.7046 18.7955 18.793 17.6298 19.3508 16.6657C19.931 15.6619 20.9118 15.0367 21.9752 14.8736C22.2323 13.6371 22.2323 12.3609 21.9752 11.1244C20.8731 10.9578 19.9071 10.2981 19.3508 9.33232C18.7933 8.3684 18.7049 7.20313 19.1106 6.16615C18.1694 5.32308 17.064 4.68389 15.8638 4.28882C15.1686 5.15976 14.1145 5.66656 13.0001 5.66565C11.8857 5.66656 10.8316 5.15976 10.1364 4.28882ZM15.7659 12.9959C15.7637 13.9827 15.233 14.8927 14.3751 15.3805C13.061 16.1276 11.3902 15.674 10.6343 14.3649C9.87848 13.0558 10.321 11.382 11.6251 10.6175C12.4764 10.1184 13.5299 10.1137 14.3856 10.6052C15.2413 11.0968 15.768 12.0091 15.7659 12.9959Z" fill="white"/>
</svg>
