<svg width="16" height="17" fill="none" xmlns="http://www.w3.org/2000/svg"><path d="M4.333 3.167c0-.185.15-.334.334-.334h6.666c.184 0 .334.15.334.334v10.666c0 .184-.15.334-.334.334H4.667a.333.333 0 01-.334-.334V3.167zM4.667.833a2.333 2.333 0 00-2.334 2.334v10.666a2.333 2.333 0 002.334 2.334h6.666a2.333 2.333 0 002.334-2.334V3.167A2.333 2.333 0 0011.333.833H4.667zm3 11a.333.333 0 11.666 0 .333.333 0 01-.666 0zm1 0a.667.667 0 11-1.334 0 .667.667 0 011.334 0z" fill="#B7BABF" class="svg-fill" /><defs><clipPath id="clip0"><path fill="#fff" transform="translate(0 .5)" d="M0 0h16v16H0z"/></clipPath></defs></svg>