<svg fill="none" widht="16" height="17" viewBox="0 0 16 17"><defs/><g clip-path="url(#clip0)"><path class="svg-fill" fill="#B7BABF" fill-rule="evenodd" d="M4.3 3.2c0-.2.2-.4.4-.4h6.6c.2 0 .4.2.4.4v10.6c0 .2-.2.4-.4.4H4.7a.3.3 0 01-.4-.4V3.2zM4.7.8c-1.3 0-2.4 1-2.4 2.4v10.6c0 1.3 1 2.4 2.4 2.4h6.6c1.3 0 2.4-1 2.4-2.4V3.2c0-1.3-1-2.4-2.4-2.4H4.7zm3 11a.3.3 0 11.6 0 .3.3 0 01-.6 0zm1 0a.7.7 0 11-1.4 0 .7.7 0 011.4 0z" clip-rule="evenodd"/></g><defs><clipPath id="clip0"><path fill="#fff" d="M0 0h16v16H0z" transform="translate(0 .5)"/></clipPath></defs></svg>