<svg width="15" height="15" viewBox="0 0 15 15" fill="none" xmlns="http://www.w3.org/2000/svg">
<path fill-rule="evenodd" clip-rule="evenodd" d="M14.2618 7.5C13.6737 4.3 10.87 1.875 7.49997 1.875C4.12997 1.875 1.3256 4.3 0.738098 7.5C1.32622 10.7 4.12997 13.125 7.49997 13.125C10.87 13.125 13.6743 10.7 14.2618 7.5ZM12.9856 7.5C12.4011 10.0592 10.1251 11.8744 7.49997 11.875C4.8749 11.8744 2.59883 10.0592 2.01435 7.5C2.60096 4.94294 4.87648 3.13033 7.49997 3.13033C10.1235 3.13033 12.399 4.94294 12.9856 7.5ZM7.49997 10.3125C5.94667 10.3125 4.68747 9.0533 4.68747 7.5C4.68747 5.9467 5.94667 4.6875 7.49997 4.6875C9.05327 4.6875 10.3125 5.9467 10.3125 7.5C10.3125 9.0533 9.05327 10.3125 7.49997 10.3125ZM9.06247 7.5C9.06247 8.36295 8.36292 9.0625 7.49997 9.0625C6.63703 9.0625 5.93747 8.36295 5.93747 7.5C5.93747 6.63705 6.63703 5.9375 7.49997 5.9375C8.36292 5.9375 9.06247 6.63705 9.06247 7.5Z" fill="#B7BABF"/>
</svg>
